# xmcd
#
# Track frame offsets: 
#        150
#        18627
#        39722
#        56894
#        78787
#        100996
#        119624
#        143449
#        164302
#        181777
#        208792
#        231356
#
# Disc length: 3349 seconds
#
# Revision: 0
# Processed by: cddbd v1.5.2PL0 Copyright (c) Steve Scherf et al.
# Submitted via: ExactAudioCopyFreeDBPlugin 1.0
#
DISCID=a20d130c
DTITLE=上原れな - The Brilliant Best～タイアップコレクション～ DISC-1
DYEAR=2013
DGENRE=JPop
TTITLE0=Heart To Heart
TTITLE1=コスモスのように
TTITLE2=虹の架け橋
TTITLE3=君が残したもの
TTITLE4=Until
TTITLE5=Hold a dream
TTITLE6=Seed
TTITLE7=夢のつづき
TTITLE8=Tears to Tiara ～the essence～
TTITLE9=Please sing with me
TTITLE10=WORDS OF LOVE
TTITLE11=余韻
EXTD=
EXTT0=
EXTT1=
EXTT2=
EXTT3=
EXTT4=
EXTT5=
EXTT6=
EXTT7=
EXTT8=
EXTT9=
EXTT10=
EXTT11=
PLAYORDER=
